# xmcd
#
# Track frame offsets:
#	150
#	13154
#	25249
#	38300
#	50548
#	63415
#	76647
#	89926
#	101042
#	112862
#	125235
#	140517
#	152274
#	165471
#	176378
#	189019
#	202732
#	215979
#	228701
#	242029
#	255922
#	268449
#	280347
#	291452
#
# Disc length: 4157 seconds
#
# Revision: 1
# Processed by: cddbd v1.5.2PL0 Copyright (c) Steve Scherf et al.
# Submitted via: audiograbber 1.83.01
#
DISCID=53103b18
DTITLE=Various Artist - Midnight Steppers (Disc3)
DYEAR=2013
DGENRE=R&B
TTITLE0=Big Chief Ellis - Dices! Dices!
TTITLE1=Thunder Smith - Little Mama Boogie
TTITLE2=Jimmy McCracklin - Miss Minnie Lee Blues
TTITLE3=Eddie Boyd - Five Long Years
TTITLE4=Amos Milburn - Chicken Shack Boogie
TTITLE5=Little Johnny Jones - Big Town Play Boy
TTITLE6=J B Lenoir (feat. Sunnyland Slim) - The Mojo
TTITLE7=Morris Pejoe (feat. Henry Gray) - Tired Of Crying Over You
TTITLE8=Howlin' Wolf (feat. Henry Gray) - I Have A Little Girl
TTITLE9=Cecil Gant - Time Will Tell
TTITLE10=Sunnyland Slim - Roll, Tumble And Slip
TTITLE11=Dr Hepcat - Hattie Green
TTITLE12=Willie Mabon - Monday Woman
TTITLE13=Piano Red - Red's Boogie
TTITLE14=Eddie Boyd (feat. James Clark) - I Had to Let Her Go
TTITLE15=Muddy Waters (feat. Otis Spann) - Young Fashioned Ways
TTITLE16=Lonnie Lyons - Down In The Groovy
TTITLE17=Leroy Ervin - Blue, Black And Evil
TTITLE18=Little Willie Littlefield - Little Willie's Boogie
TTITLE19=Bob Gaddy - Bicycle Boogie
TTITLE20=Dr Hepcat - Hepcat's Boogie
TTITLE21=Willie Johnson - Sampson Street Boogie
TTITLE22=Robert Lockwood (feat. Sunnyland Slim) - Dust My Broom
TTITLE23=Otis Spann - Otis In The Dark
EXTD=
EXTT0=
EXTT1=
EXTT2=
EXTT3=
EXTT4=
EXTT5=
EXTT6=
EXTT7=
EXTT8=
EXTT9=
EXTT10=
EXTT11=
EXTT12=
EXTT13=
EXTT14=
EXTT15=
EXTT16=
EXTT17=
EXTT18=
EXTT19=
EXTT20=
EXTT21=
EXTT22=
EXTT23=
PLAYORDER=
